# xmcd CD database file
#
# Track frame offsets:
#	150
#	19412
#	39850
#	54362
#	72535
#	90875
#	112487
#	130157
#	155425
#	174192
#	198557
#	216182
#	233395
#
# Disc length: 3338 seconds
#
# Revision: 0
# Processed by: cddbd v1.5PL3 Copyright (c) Steve Scherf et al.
# Submitted via: CDex 1.51
#
DISCID=aa0d080d
DTITLE=INXS - Elegantly Wasted
DYEAR=1900
DGENRE=Pop
TTITLE0=Show Me(Cherry Baby)
TTITLE1=Elegantly Wasted
TTITLE2=Everything
TTITLE3=Don't Lose Your Head
TTITLE4=Searching
TTITLE5=I'm Just A Man
TTITLE6=Girl On Fire
TTITLE7=We Are Thrown Together
TTITLE8=Shake The Tree
TTITLE9=She Is Rising
TTITLE10=Building Bridges
TTITLE11=Shine
TTITLE12=Let It Ride
EXTD=
EXTT0=
EXTT1=
EXTT2=
EXTT3=
EXTT4=
EXTT5=
EXTT6=
EXTT7=
EXTT8=
EXTT9=
EXTT10=
EXTT11=
EXTT12=
PLAYORDER=
